<?xml version="1.0" encoding="UTF-8"?><svg id="a" xmlns="http://www.w3.org/2000/svg" viewBox="0 0 174.21 198.81"><defs><style>.b{fill:#fff;}.c{fill:none;stroke:#fff;stroke-linecap:round;stroke-miterlimit:10;stroke-width:18px;}.d{fill:#3eaf6e;}</style></defs><path class="d" d="M12.64,24.09H160.73c3.9-2.84,6.68-5.63,8.51-7.66,4.62-5.14,4.86-7.18,4.85-8.17-.02-3.5-2.66-6.01-2.85-6.19-1.45-1.33-3-1.86-3.83-2.07l-10.85,.09c-7.72-.03-15.43-.06-23.15-.09-18.19,.11-36.38,.22-54.56,.33-12.59-.02-25.18-.05-37.78-.07-6.05,.14-10.94,.13-14.38,.09-4.74-.06-9.48,.12-14.22-.14-.41-.02-2.03-.12-4.21,.01-1.36,.08-2.05,.12-2.55,.26C2.91,1.2,.45,5.27,.71,8.9c.11,1.45,.66,2.8,4.99,7.78,2.78,3.2,5.22,5.71,6.94,7.4Z"/><path class="d" d="M161.64,174.72H13.56c-3.9,2.84-6.68,5.63-8.51,7.66C.42,187.52,.19,189.56,.19,190.55c.02,3.5,2.66,6.01,2.85,6.19,1.45,1.33,3,1.86,3.83,2.07l10.85-.09c7.72,.03,15.43,.06,23.15,.09,18.19-.11,36.38-.22,54.56-.33,12.59,.02,25.18,.05,37.78,.07,6.05-.14,10.94-.13,14.38-.09,4.74,.06,9.48-.12,14.22,.14,.41,.02,2.03,.12,4.21-.01,1.36-.08,2.05-.12,2.55-.26,2.8-.73,5.25-4.8,4.99-8.43-.11-1.45-.66-2.8-4.99-7.78-2.78-3.2-5.22-5.71-6.94-7.4Z"/><path class="d" d="M9.41,38.13H164.13c4.52,13.45,9.32,32.61,10,55.92,.84,28.84-4.98,52.18-10,67.14H9.41C4.34,144.92-1.16,120.28,.21,90.22c.96-21.05,5.03-38.76,9.19-52.09Z"/><path class="b" d="M78.34,112.26c-4.33-.4-20.52-2.4-31.49-15.81-8-9.79-14.08-26.71-7.66-33.21,6.42-6.5,22.95-.14,31.65,5.43,8.76,5.6,13.63,12.99,16.05,17.38,1.63-2.77,4.11-6.35,7.79-9.87,12.82-12.28,34.84-18.76,41.19-11.57,5.75,6.51-1.55,23.97-11.23,34.04-9.95,10.35-22.39,12.88-27.57,13.62h-18.72Z"/><line class="c" x1="86.89" y1="128.94" x2="86.89" y2="112.26"/></svg>