<?xml version="1.0" encoding="UTF-8"?><svg id="a" xmlns="http://www.w3.org/2000/svg" viewBox="0 0 340.74 207.51"><defs><style>.b,.c{fill:#3eaf6e;}.d{stroke:#fff;stroke-width:13px;}.d,.c,.e{stroke-miterlimit:10;}.d,.e{fill:none;stroke-linecap:round;}.c,.e{stroke:#3eaf6e;}.e{stroke-width:24px;}</style></defs><path class="b" d="M31.27,164.9c.06-4.24-.42-10.68-3.62-17.34-5.31-11.06-12.41-10.85-17.49-20.61-5.26-10.11,1.1-12.72-3.23-30.3C3.7,83.53-.85,80.92,.14,71.44c.84-8.06,4.94-14.01,6.88-16.84,5.52-8.01,9.59-8.17,17.25-15.92,10.58-10.7,6.9-14.52,15.13-21.46,8.73-7.37,22.21-10.93,34.6-7.38,7.72,2.21,12.93,6.58,15.62,9.21-1.48,1.87-3.53,4.72-5.43,8.49-2.28,4.53-2.65,7-3.7,9.77-3.39,8.91-9.25,8.61-16.7,18.66-2.13,2.87-5.94,8.01-7.73,15.57-1.71,7.21-1.56,16.5-1.46,22.22,.08,4.86,.34,6.21-.51,8.68-1.84,5.35-5.68,6.66-9.87,11.74-4.24,5.14-5.76,10.39-6.64,13.45-3.57,12.37-1.62,23.55-1.62,23.55,.38,2.15,1.18,5.76-.6,9.3-1.09,2.17-2.78,3.57-4.09,4.43Z"/><path class="c" d="M42.38,205.37c-4.79,2.64-10.62,2.01-14.3-1.4-4.43-4.11-5-11.57-.77-16.85,6.38-6.26,12.77-12.51,19.15-18.77,1.11-2.48,2.57-6.3,3.37-11.12,1.17-7.09-.19-9.67,.46-19.39,.48-7.11,.71-10.66,2.72-14.12,2.32-4.01,4.2-3.84,8.9-9.88,2.29-2.95,4.63-5.96,6-10.09,1.64-4.94,.71-7.92,.51-13.91-.24-7.1-.49-14.52,2.68-21.06,3.92-8.1,8.99-6.41,16.6-17.62,1.22-1.8,3.07-5.33,6.77-12.38,5.94-11.34,6-12.58,8.3-15.45,5.83-7.28,13.93-9.93,16.47-10.72,9.94-3.11,13.14,.8,31.67-.48,6.46-.45,5.47-.88,14.42-1.69,14.59-1.31,21.88-1.96,27.7-.51,11.56,2.89,22.16,12.04,27.32,23.87,4.84,11.12,3.44,21.3,2.64,25.41-2.54,9.71-3.12,17.71-3.15,23.36-.08,12.38,2.42,18.72-.89,29.49-2.05,6.63-5.02,10.79-5.9,11.98-1.83,2.47-6.67,8.34-14.95,11.94-5.37,2.34-5.87,.97-10.78,3.2-5.32,2.42-6.48,4.81-14.32,11.95-8.45,7.69-12.67,11.53-17.36,12.51-1.9,.4-2.13,.15-14.82,.04-4.34-.04-7.92-.04-10.33-.04-6.32,1.59-10.28,4.27-12.77,6.51-3.39,3.05-4.51,5.71-8.94,8.43-3.19,1.95-6.02,2.67-8.17,3.19-5.11,1.24-6.95,.52-20.68,.38-5.84-.06-9.4,.03-13.4,2.04-2.03,1.02-3.52,2.21-4.47,3.06-6.55,6.04-13.11,12.09-19.66,18.13Z"/><line class="d" x1="92.72" y1="139.2" x2="180.58" y2="51.41"/><line class="d" x1="111.44" y1="81.67" x2="112.29" y2="116.9"/><line class="d" x1="174.29" y1="95.07" x2="139.05" y2="95.53"/><path class="e" d="M317.75,42.92c-8.26-3.8-23.44-9.13-41.63-6.22-9.79,1.56-27.24,4.35-33.6,18.22-3.64,7.93-2.9,17.84,1.36,25.19,4.01,6.92,10.09,9.79,18.21,13.62,8.94,4.21,12.55,3.92,33.19,9.45,16.76,4.49,20.16,6.23,23.49,9.19,2.13,1.9,9.6,8.53,9.96,18.89,.4,11.47-8.22,19.13-9.96,20.68-8.8,7.83-19.63,8.12-30.64,8.27-10.07,.13-27.24-1.09-47.64-10.22"/><line class="e" x1="285.05" y1="12" x2="285.07" y2="25.55"/><line class="e" x1="285.05" y1="173.02" x2="285.07" y2="186.57"/></svg>